<svg xmlns="http://www.w3.org/2000/svg" viewBox="0 0 120 120" role="img" aria-label="SBI Bakuna Eskwela emblem">
  <title>SBI · Bakuna Eskwela</title>
  <defs>
    <linearGradient id="sbiBadge" x1="0.15" y1="0" x2="0.6" y2="1">
      <stop offset="0" stop-color="#17867D"/>
      <stop offset="1" stop-color="#0B4A55"/>
    </linearGradient>
  </defs>
  <!-- round badge: an official seal shape -->
  <circle cx="60" cy="60" r="57" fill="url(#sbiBadge)"/>
  <!-- gold rim -->
  <circle cx="60" cy="60" r="49.5" fill="none" stroke="#F2B705" stroke-width="3"/>
  <!-- the bandage: "I got vaccinated" (Bakunado, Protektado!) -->
  <g transform="rotate(-35 60 60)">
    <rect x="25" y="46" width="70" height="28" rx="14" fill="#F7D6A6"/>
    <rect x="47" y="46" width="26" height="28" fill="#E8B577"/>
    <circle cx="53" cy="54" r="2.4" fill="#C08647"/>
    <circle cx="67" cy="54" r="2.4" fill="#C08647"/>
    <circle cx="53" cy="66" r="2.4" fill="#C08647"/>
    <circle cx="67" cy="66" r="2.4" fill="#C08647"/>
    <circle cx="33" cy="60" r="1.6" fill="#D9A867"/>
    <circle cx="87" cy="60" r="1.6" fill="#D9A867"/>
  </g>
  <!-- sparkles: protected and happy -->
  <path d="M41 25L43.6 32.4L51 35L43.6 37.6L41 45L38.4 37.6L31 35L38.4 32.4Z" fill="#F2B705"/>
  <path d="M80 77L81.8 82.2L87 84L81.8 85.8L80 91L78.2 85.8L73 84L78.2 82.2Z" fill="#FFFFFF"/>
</svg>
